{"title":"Mass Effect Paragon Lost + Extras [1080p][DD5.1]","uid":7952704,"size":5640251819,"categoryP":"video","categoryS":"hd___movies","magnet":"?xt=urn:btih:a09d9084865f9fdc80296e4f736ad13dec22e9f2&amp;dn=Mass+Effect+Paragon+Lost+%2B+Extras+%5B1080p%5D%5BDD5.1%5D&amp;tr=udp%3A%2F%2Ftracker.openbittorrent.com%3A80&amp;tr=udp%3A%2F%2Fopen.demonii.com%3A1337&amp;tr=udp%3A%2F%2Ftracker.coppersurfer.tk%3A6969&amp;tr=udp%3A%2F%2Fexodus.desync.com%3A6969","seeders":5,"leechers":1,"uploader":"SaTaNiK1","files":4,"time":1356326222,"description":"F:VIDEO EDITINGMass Effect Paragon Lost + ExtrasMass Effect Paragon Lost (2012).mkv\n   General\n      Unique ID : 76898064924518866689676849584383396562 (0x39DA0751B296020C5E5FC90A26EF0AD2)\n      Complete name : F:VIDEO EDITINGMass Effect Paragon Lost + ExtrasMass Effect Paragon Lost (2012).mkv\n      Format : Matroska\n      Format version : Version 2\n      File size : 3.60 GiB\n      Duration : 1h 34mn\n      Overall bit rate : 5 454 Kbps\n      Writing application : HandBrake 0.9.8\n      Writing library : libmkv 0.6.5\n   Video #1\n      ID : 1\n      Format : AVC\n      Format/Info : Advanced Video Codec\n      Format profile : &lt;a class=&quot;__cf_email__&quot; href=&quot;/cdn-cgi/l/email-protection&quot; data-cfemail=&quot;b2fadbd5daf2fe879c82&quot;&gt;[email&amp;#160;protected]&lt;/a&gt;&lt;script cf-hash='f9e31' type=&quot;text/javascript&quot;&gt;\n/* &lt;![CDATA[ */!function(){try{var t=&quot;currentScript&quot;in document?document.currentScript:function(){for(var t=document.getElementsByTagName(&quot;script&quot;),e=t.length;e--;)if(t[e].getAttribute(&quot;cf-hash&quot;))return t[e]}();if(t&amp;&amp;t.previousSibling){var e,r,n,i,c=t.previousSibling,a=c.getAttribute(&quot;data-cfemail&quot;);if(a){for(e=&quot;&quot;,r=parseInt(a.substr(0,2),16),n=2;a.length-n;n+=2)i=parseInt(a.substr(n,2),16)^r,e+=String.fromCharCode(i);e=document.createTextNode(e),c.parentNode.replaceChild(e,c)}}}catch(u){}}();/* ]]&gt; */&lt;/script&gt;\n      Format settings, CABAC : Yes\n      Format settings, ReFrames : 5 frames\n      Codec ID : V_MPEG4/ISO/AVC\n      Duration : 1h 34mn\n      Bit rate : 5 000 Kbps\n      Width : 1 920 pixels\n      Height : 1 072 pixels\n      Display aspect ratio : 16:9\n      Frame rate mode : Constant\n      Frame rate : 23.976 fps\n      Color space : YUV\n      Chroma subsampling : 4:2:0\n      Bit depth : 8 bits\n      Scan type : Progressive\n      Bits/(Pixel*Frame) : 0.101\n      Stream size : 3.23 GiB (90%)\n      Writing library : x264 core 120\n      Encoding settings : cabac=1 / ref=6 / deblock=1:0:0 / analyse=0x3:0x133 / me=umh / subme=7 / psy=1 / psy_rd=1.00:0.00 / mixed_ref=1 / me_range=64 / chroma_me=1 / trellis=2 / 8x8dct=1 / cqm=0 / deadzone=21,11 / fast_pskip=1 / chroma_qp_offset=-2 / threads=12 / sliced_threads=0 / nr=0 / decimate=1 / interlaced=0 / bluray_compat=0 / constrained_intra=0 / bframes=16 / b_pyramid=1 / b_adapt=2 / b_bias=0 / direct=1 / weightb=1 / open_gop=0 / weightp=2 / keyint=240 / keyint_min=24 / scenecut=40 / intra_refresh=0 / rc_lookahead=50 / rc=2pass / mbtree=1 / bitrate=5000 / ratetol=1.0 / qcomp=0.60 / qpmin=3 / qpmax=69 / qpstep=4 / cplxblur=20.0 / qblur=0.5 / ip_ratio=1.40 / aq=1:1.00\n      Language : English\n      Default : Yes\n      Forced : No\n      Color primaries : BT.709\n      Transfer characteristics : BT.709\n      Matrix coefficients : BT.709\n   Audio #2\n      ID : 2\n      Format : AC-3\n      Format/Info : Audio Coding 3\n      Mode extension : CM (complete main)\n      Format settings, Endianness : Big\n      Codec ID : A_AC3\n      Duration : 1h 34mn\n      Bit rate mode : Constant\n      Bit rate : 448 Kbps\n      Channel(s) : 6 channels\n      Channel positions : Front: L C R, Side: L R, LFE\n      Sampling rate : 48.0 KHz\n      Bit depth : 16 bits\n      Compression mode : Lossy\n      Stream size : 303 MiB (8%)\n      Language : English\n      Default : Yes\n      Forced : No","torrent":{"xt":"urn:btih:a09d9084865f9fdc80296e4f736ad13dec22e9f2","amp;dn":"Mass+Effect+Paragon+Lost+%2B+Extras+%5B1080p%5D%5BDD5.1%5D","amp;tr":["udp%3A%2F%2Ftracker.openbittorrent.com%3A80","udp%3A%2F%2Fopen.demonii.com%3A1337","udp%3A%2F%2Ftracker.coppersurfer.tk%3A6969","udp%3A%2F%2Fexodus.desync.com%3A6969"],"infoHash":"a09d9084865f9fdc80296e4f736ad13dec22e9f2","infoHashBuffer":{"type":"Buffer","data":[160,157,144,132,134,95,159,220,128,41,110,79,115,106,209,61,236,34,233,242]},"announce":[],"urlList":[]}}